# xmcd CD database file
#
# Track frame offsets:
#	182
#	32015
#	49102
#	73662
#	87367
#	106292
#	119817
#	134705
#	151500
#	310715
#
# Disc length: 4187 seconds
#
# Revision: 0
# Processed by: cddbd v1.4PL0 Copyright (c) Steve Scherf et al.
# Submitted via: CDex 1.50
#
DISCID=8510590a
DTITLE=Jiri Stivin and Collegium Quodlibet - Pocta Sv. Cecilii
DYEAR=1992
DGENRE=Jazz
TTITLE0=Braniborsky koncert c. 4 G dur, BWV 1049 - Allegro
TTITLE1=BWV 1049 - Andante
TTITLE2=BWV 1049 - Presto
TTITLE3=Telemannuv koncert pro fletnu - Largo
TTITLE4=Allegro
TTITLE5=Largo
TTITLE6=Presto
TTITLE7=Osloveni obecenstva
TTITLE8=Pocta Sv. Cecilii
TTITLE9=Pridavek
EXTD=YEAR: 1992
EXTT0=
EXTT1=
EXTT2=
EXTT3=
EXTT4=
EXTT5=
EXTT6=
EXTT7=
EXTT8=
EXTT9=
PLAYORDER=
